<mxfile host="Electron" modified="2023-06-25T19:56:28.562Z" agent="Mozilla/5.0 (Windows NT 10.0; Win64; x64) AppleWebKit/537.36 (KHTML, like Gecko) draw.io/21.5.0 Chrome/112.0.5615.204 Electron/24.5.1 Safari/537.36" etag="QuRddgjlhHRb-gqLSIvA" version="21.5.0" type="device">
  <diagram name="PÃ¡gina-1" id="b_iqmQrNujLsWQwovYcX">
    <mxGraphModel dx="880" dy="532" grid="1" gridSize="10" guides="1" tooltips="1" connect="1" arrows="1" fold="1" page="1" pageScale="1" pageWidth="827" pageHeight="1169" math="0" shadow="0">
      <root>
        <mxCell id="0" />
        <mxCell id="1" parent="0" />
        <mxCell id="lnPJkCGMEyPzjnrOgd4Y-13" value="" style="rounded=1;whiteSpace=wrap;html=1;" parent="1" vertex="1">
          <mxGeometry x="158" y="288" width="480" height="220" as="geometry" />
        </mxCell>
        <mxCell id="lnPJkCGMEyPzjnrOgd4Y-7" value="HTTP" style="edgeStyle=orthogonalEdgeStyle;rounded=0;orthogonalLoop=1;jettySize=auto;html=1;" parent="1" source="lnPJkCGMEyPzjnrOgd4Y-1" target="lnPJkCGMEyPzjnrOgd4Y-6" edge="1">
          <mxGeometry relative="1" as="geometry" />
        </mxCell>
        <mxCell id="lnPJkCGMEyPzjnrOgd4Y-1" value="UI" style="rounded=1;whiteSpace=wrap;html=1;" parent="1" vertex="1">
          <mxGeometry x="330" y="30" width="120" height="60" as="geometry" />
        </mxCell>
        <mxCell id="lnPJkCGMEyPzjnrOgd4Y-3" value="WeatherViewer" style="shape=cylinder3;whiteSpace=wrap;html=1;boundedLbl=1;backgroundOutline=1;size=15;" parent="1" vertex="1">
          <mxGeometry x="345" y="585" width="110" height="80" as="geometry" />
        </mxCell>
        <mxCell id="lnPJkCGMEyPzjnrOgd4Y-5" value="Controllers" style="rounded=1;whiteSpace=wrap;html=1;" parent="1" vertex="1">
          <mxGeometry x="253" y="318" width="295" height="50" as="geometry" />
        </mxCell>
        <mxCell id="lnPJkCGMEyPzjnrOgd4Y-26" value="HTTP" style="edgeStyle=orthogonalEdgeStyle;rounded=0;orthogonalLoop=1;jettySize=auto;html=1;" parent="1" source="lnPJkCGMEyPzjnrOgd4Y-6" edge="1">
          <mxGeometry relative="1" as="geometry">
            <mxPoint x="390" y="320" as="targetPoint" />
          </mxGeometry>
        </mxCell>
        <mxCell id="lnPJkCGMEyPzjnrOgd4Y-6" value="" style="ellipse;shape=cloud;whiteSpace=wrap;html=1;" parent="1" vertex="1">
          <mxGeometry x="330" y="150" width="120" height="80" as="geometry" />
        </mxCell>
        <mxCell id="lnPJkCGMEyPzjnrOgd4Y-9" value="Services" style="rounded=1;whiteSpace=wrap;html=1;" parent="1" vertex="1">
          <mxGeometry x="253" y="378" width="295" height="50" as="geometry" />
        </mxCell>
        <mxCell id="lnPJkCGMEyPzjnrOgd4Y-21" style="edgeStyle=orthogonalEdgeStyle;rounded=0;orthogonalLoop=1;jettySize=auto;html=1;" parent="1" source="lnPJkCGMEyPzjnrOgd4Y-10" target="lnPJkCGMEyPzjnrOgd4Y-3" edge="1">
          <mxGeometry relative="1" as="geometry" />
        </mxCell>
        <mxCell id="lnPJkCGMEyPzjnrOgd4Y-10" value="Repository" style="rounded=1;whiteSpace=wrap;html=1;" parent="1" vertex="1">
          <mxGeometry x="255" y="438" width="290" height="50" as="geometry" />
        </mxCell>
        <mxCell id="lnPJkCGMEyPzjnrOgd4Y-11" value="Logging /&amp;nbsp; Exceptions / Mappers / DI Containers" style="rounded=1;whiteSpace=wrap;html=1;rotation=-90;" parent="1" vertex="1">
          <mxGeometry x="508" y="368" width="180" height="70" as="geometry" />
        </mxCell>
        <mxCell id="lnPJkCGMEyPzjnrOgd4Y-14" value="WeatherViewer.WebAPi" style="text;html=1;strokeColor=none;fillColor=none;align=center;verticalAlign=middle;whiteSpace=wrap;rounded=0;" parent="1" vertex="1">
          <mxGeometry x="288" y="288" width="60" height="30" as="geometry" />
        </mxCell>
        <mxCell id="lnPJkCGMEyPzjnrOgd4Y-17" value="DTOs" style="rounded=1;whiteSpace=wrap;html=1;rotation=-90;" parent="1" vertex="1">
          <mxGeometry x="166.75" y="334.25" width="87.5" height="45" as="geometry" />
        </mxCell>
        <mxCell id="lnPJkCGMEyPzjnrOgd4Y-18" value="Entties" style="rounded=1;whiteSpace=wrap;html=1;rotation=-90;" parent="1" vertex="1">
          <mxGeometry x="169.25" y="426.75" width="82.5" height="45" as="geometry" />
        </mxCell>
        <mxCell id="lnPJkCGMEyPzjnrOgd4Y-22" value="WeatherViewer.Web" style="text;html=1;strokeColor=none;fillColor=none;align=center;verticalAlign=middle;whiteSpace=wrap;rounded=0;" parent="1" vertex="1">
          <mxGeometry x="480" y="45" width="60" height="30" as="geometry" />
        </mxCell>
      </root>
    </mxGraphModel>
  </diagram>
</mxfile>
